<svg width="21" height="21" viewBox="0 0 21 21" fill="none" xmlns="http://www.w3.org/2000/svg">
<path fill-rule="evenodd" clip-rule="evenodd" d="M9.85657 6.87969C10.3747 6.18092 10.5605 5.44449 9.9745 4.79444C8.65955 2.953 7.77521 1.81425 7.22051 1.26586C6.16595 0.223299 4.43118 0.364322 3.51785 1.26497C3.0273 1.74872 2.86122 1.91484 2.35753 2.42686C-0.448123 5.23625 1.26291 11.1752 5.81145 15.7318C10.359 20.2874 16.2926 22.0008 19.1042 19.1854C19.569 18.737 19.9625 18.3429 20.2729 18.0146C21.1679 17.0679 21.3038 15.4083 20.267 14.3301C19.7354 13.7774 18.6504 12.9351 16.733 11.5624C16.1457 11.0369 15.4495 11.1508 14.8111 11.57C14.504 11.7716 14.2806 11.9755 13.8586 12.3982L13.0924 13.1655C12.9914 13.2666 11.621 12.5797 10.2908 11.2471C8.95978 9.91373 8.27396 8.54217 8.37441 8.44165L9.14118 7.67384C9.27506 7.53973 9.33906 7.4748 9.42114 7.38846C9.59215 7.20859 9.73374 7.04536 9.85657 6.87969ZM14.5058 14.5808L15.2722 13.8134C15.5044 13.5808 15.6549 13.4377 15.7774 13.3391C17.457 14.5463 18.4298 15.3053 18.8271 15.7185C19.0657 15.9666 19.0286 16.4192 18.8212 16.6386C18.5342 16.9422 18.1614 17.3155 17.7038 17.7572C15.8858 19.5775 11.096 18.1945 7.22519 14.3168C3.35321 10.4379 1.97194 5.6436 3.77626 3.83685C4.27792 3.32694 4.43686 3.16795 4.92042 2.69111C5.10172 2.51232 5.59558 2.47217 5.81614 2.69022C6.2432 3.11243 7.0354 4.12759 8.20077 5.75222C8.14044 5.82718 8.06509 5.91189 7.97339 6.00834C7.90609 6.07913 7.85002 6.13601 7.72744 6.25881L6.96142 7.02586C5.65827 8.32994 6.76808 10.5494 8.87703 12.6621C10.9845 14.7734 13.2031 15.8853 14.5058 14.5808Z" fill="white"/>
</svg>
