<svg width="20" height="21" viewBox="0 0 20 21" fill="none" xmlns="http://www.w3.org/2000/svg">
<path fill-rule="evenodd" clip-rule="evenodd" d="M14.4374 0.134766C15.0921 0.134766 15.7197 0.396394 16.1781 0.858765L19.279 3.96214C19.7407 4.42418 20.0001 5.05085 20.0001 5.70428C20.0001 6.35772 19.7407 6.98438 19.279 7.44643L7.95751 18.7734C7.25903 19.5798 6.2689 20.0752 5.1346 20.153H0L0.00324765 14.9339C0.0884383 13.8786 0.578667 12.8973 1.3265 12.2378L12.6954 0.859972C13.1564 0.395803 13.7834 0.134766 14.4374 0.134766ZM5.06398 18.1539C5.59821 18.1161 6.09549 17.8673 6.4948 17.4102L14.0567 9.84222L10.3023 6.0847L2.6961 13.6952C2.29095 14.0538 2.04031 14.5555 2 15.0145V18.1521L5.06398 18.1539ZM11.7167 4.66953L15.4709 8.42688L17.8648 6.03109C17.9514 5.94441 18.0001 5.82686 18.0001 5.70428C18.0001 5.58171 17.9514 5.46415 17.8648 5.37748L14.7611 2.27132C14.6755 2.18495 14.5589 2.13636 14.4374 2.13636C14.3158 2.13636 14.1992 2.18495 14.1136 2.27132L11.7167 4.66953Z" fill="#2F4050"/>
</svg>
