<svg width="20" height="21" viewBox="0 0 20 21" fill="none" xmlns="http://www.w3.org/2000/svg">
<path d="M5 12.3637V10.3621H7V12.3637H5Z" fill="#2F4050"/>
<path d="M9 12.3637H11V10.3621H9V12.3637Z" fill="#2F4050"/>
<path d="M13 12.3637V10.3621H15V12.3637H13Z" fill="#2F4050"/>
<path d="M5 14.3652V16.3668H7V14.3652H5Z" fill="#2F4050"/>
<path d="M11 16.3668H9V14.3652H11V16.3668Z" fill="#2F4050"/>
<path fill-rule="evenodd" clip-rule="evenodd" d="M14 1.35489H6V0.354095H4V1.35489H2C0.89543 1.35489 0 2.25104 0 3.35649V18.3684C0 19.4739 0.89543 20.37 2 20.37H18C19.1046 20.37 20 19.4739 20 18.3684V3.35649C20 2.25104 19.1046 1.35489 18 1.35489H16V0.354095H14V1.35489ZM6 4.35728H4V3.35649H2V6.35887H18V3.35649H16V4.35728H14V3.35649H6V4.35728ZM18 8.36047H2V18.3684H18V8.36047Z" fill="#2F4050"/>
</svg>
